<svg xmlns="http://www.w3.org/2000/svg" width="48" height="48" viewBox="0 0 48 48">
  <path fill="#9B9B9B" fill-rule="evenodd" d="M23.3828577,0 C10.4682131,0 0,10.4682131 0,23.3828577 C0,36.2960409 10.4682131,46.7657155 23.3828577,46.7657155 C36.2975023,46.7657155 46.7657155,36.2960409 46.7657155,23.3828577 C46.7657155,10.4682131 36.2975023,0 23.3828577,0 L23.3828577,0 Z M31.7203079,33.0969737 L36.0198309,33.0969737 C36.0198309,20.7712848 25.9929692,10.737116 13.6687418,10.737116 L13.6687418,15.0249475 C23.6210706,15.0249475 31.7203079,23.1329534 31.7203079,33.0969737 L31.7203079,33.0969737 Z M16.6456718,33.1042808 C18.2941633,33.1042808 19.6255248,31.7802265 19.6255248,30.1390422 C19.6255248,28.5066264 18.2941633,27.1679578 16.6456718,27.1679578 C15.0044875,27.1679578 13.6702032,28.5066264 13.6702032,30.1390422 C13.6687418,31.7802265 15.0030261,33.1042808 16.6456718,33.1042808 L16.6456718,33.1042808 Z M24.1223406,33.0984351 L24.1223406,33.0984351 L28.4262479,33.0984351 C28.4262479,24.9582778 21.8045148,18.3365447 13.6672803,18.3365447 L13.6672803,22.6229149 C16.458609,22.6229149 19.0818733,23.7131406 21.0577248,25.6919149 C23.0335763,27.6633821 24.1223406,30.2983379 24.1223406,33.0984351 L24.1223406,33.0984351 Z"/>
</svg>
