<?xml version="1.0" encoding="UTF-8"?>
<!DOCTYPE svg PUBLIC "-//W3C//DTD SVG 1.0//EN" "http://www.w3.org/TR/2001/REC-SVG-20010904/DTD/svg10.dtd">
<!-- Creator: CorelDRAW 2019 (64-Bit) -->
<svg xmlns="http://www.w3.org/2000/svg" xml:space="preserve" width="1380px" height="535px" version="1.0" shape-rendering="geometricPrecision" text-rendering="geometricPrecision" image-rendering="optimizeQuality" fill-rule="evenodd" clip-rule="evenodd"
viewBox="0 0 291.67 113.11"
 xmlns:xlink="http://www.w3.org/1999/xlink">
 <g id="Слой_x0020_1">
  <metadata id="CorelCorpID_0Corel-Layer"/>
  <g id="_1431560305968">
   <path fill="#4D4D4D" d="M38.46 70.71c-9.9,-0.93 -17.71,-9.19 -17.86,-19.36 -0.16,-10.9 8.55,-19.86 19.45,-20.02 10.89,-0.16 19.86,8.55 20.01,19.45 0.15,10.17 -7.43,18.65 -17.3,19.87l0.08 4.97 5.15 -0.07 0.06 4.3 -5.15 0.07 0.07 5.16 -4.3 0.06 -0.07 -5.15 -5.16 0.07 -0.06 -4.3 5.15 -0.07 -0.07 -4.98zm2.09 -4.37c-8.44,0.12 -15.38,-6.62 -15.5,-15.06 -0.12,-8.44 6.62,-15.38 15.06,-15.5 8.44,-0.12 15.38,6.62 15.5,15.06 0.12,8.44 -6.62,15.38 -15.06,15.5z"/>
   <path fill="#4D4D4D" d="M67.03 34.34c6.32,7.68 5.97,19.04 -1.14,26.32 -3.14,3.21 -7.1,5.12 -11.22,5.73 1.87,-1.76 3.41,-3.85 4.54,-6.17 1.26,-0.7 2.44,-1.59 3.5,-2.67 5.9,-6.04 5.79,-15.71 -0.25,-21.61 -3.74,-3.66 -8.87,-5.01 -13.64,-4.07 -2.3,-1.02 -4.82,-1.64 -7.47,-1.76 6.95,-4.33 16.03,-3.94 22.6,1.22l4.66 -4.76 -5.49 0.06 -0.05 -4.3 12.83 -0.14 0.15 12.81 -4.3 0.05 -0.07 -5.47 -4.65 4.76zm-23.6 30.41c-1.96,-0.92 -3.81,-2.17 -5.44,-3.77 -6.13,-5.99 -7.53,-15 -4.14,-22.37 1.87,-0.97 3.98,-1.54 6.23,-1.58 -5.11,6.06 -4.74,15.13 1.02,20.76 2.31,2.26 5.15,3.64 8.11,4.14 -1.65,1.35 -3.62,2.33 -5.78,2.82z"/>
  </g>
  <g id="_1431560306224">
   <path fill="#0D8894" d="M48.84 0c26.97,0 48.83,21.86 48.83,48.84 0,26.97 -21.86,48.83 -48.83,48.83 -26.98,0 -48.84,-21.86 -48.84,-48.83 0,-26.98 21.86,-48.84 48.84,-48.84zm0 9.57c21.68,0 39.26,17.58 39.26,39.27 0,21.68 -17.58,39.26 -39.26,39.26 -21.69,0 -39.27,-17.58 -39.27,-39.26 0,-21.69 17.58,-39.27 39.27,-39.27z"/>
   <path fill="#0D8894" d="M79.65 88.94l19.25 21.63c3.93,4.32 6.99,2.54 10.63,-1.04 3.58,-3.64 5.36,-6.7 1.04,-10.63l-21.63 -19.25c-1.84,2.39 -3.89,4.61 -6.12,6.64l20.92 22.74c0.99,1.05 1.95,1.88 3.82,1.23 -1.34,1.28 -3.92,2.09 -5.68,0.02l-20.72 -22.55c-0.49,0.41 -1,0.81 -1.51,1.21z"/>
  </g>
  <path fill="#4D4D4D" d="M123.8 71.5l0.98 -1.38c0.47,0.31 0.96,0.58 1.46,0.81 0.51,0.22 1.03,0.34 1.59,0.34 0.29,0 0.55,-0.04 0.77,-0.11 0.22,-0.07 0.41,-0.16 0.57,-0.27 0.15,-0.11 0.27,-0.24 0.35,-0.38 0.08,-0.15 0.11,-0.29 0.11,-0.43 0,-0.18 -0.05,-0.33 -0.17,-0.46 -0.12,-0.13 -0.27,-0.23 -0.47,-0.31 -0.19,-0.08 -0.42,-0.15 -0.68,-0.21 -0.26,-0.06 -0.54,-0.11 -0.82,-0.16 -0.19,-0.04 -0.41,-0.07 -0.66,-0.12 -0.25,-0.04 -0.51,-0.11 -0.77,-0.18 -0.27,-0.08 -0.53,-0.18 -0.79,-0.31 -0.26,-0.13 -0.49,-0.29 -0.7,-0.48 -0.21,-0.2 -0.37,-0.43 -0.5,-0.69 -0.12,-0.27 -0.18,-0.58 -0.18,-0.94 0,-0.53 0.11,-0.97 0.33,-1.32 0.23,-0.35 0.51,-0.62 0.86,-0.82 0.35,-0.2 0.74,-0.34 1.16,-0.43 0.43,-0.08 0.84,-0.12 1.24,-0.12 0.39,0 0.75,0.03 1.06,0.07 0.31,0.05 0.59,0.13 0.86,0.22 0.27,0.09 0.53,0.21 0.78,0.36 0.26,0.14 0.53,0.31 0.82,0.51l-1 1.35c-0.45,-0.29 -0.88,-0.52 -1.3,-0.67 -0.41,-0.16 -0.84,-0.24 -1.3,-0.24 -0.16,0 -0.33,0.02 -0.53,0.06 -0.2,0.03 -0.39,0.09 -0.56,0.18 -0.18,0.08 -0.33,0.18 -0.44,0.31 -0.12,0.13 -0.18,0.28 -0.18,0.46 0,0.18 0.07,0.33 0.21,0.46 0.14,0.12 0.32,0.22 0.53,0.31 0.22,0.08 0.45,0.15 0.71,0.2 0.26,0.06 0.51,0.12 0.75,0.18 0.18,0.04 0.39,0.08 0.64,0.12 0.24,0.04 0.5,0.1 0.76,0.17 0.26,0.08 0.52,0.18 0.78,0.3 0.26,0.12 0.49,0.28 0.69,0.47 0.21,0.2 0.37,0.43 0.5,0.72 0.12,0.28 0.18,0.62 0.18,1.03 0,0.46 -0.08,0.87 -0.26,1.21 -0.17,0.35 -0.41,0.63 -0.73,0.86 -0.32,0.23 -0.7,0.4 -1.14,0.51 -0.44,0.12 -0.92,0.17 -1.46,0.17 -0.49,0 -0.92,-0.03 -1.3,-0.1 -0.37,-0.07 -0.71,-0.16 -1.02,-0.28 -0.31,-0.12 -0.61,-0.26 -0.88,-0.43 -0.28,-0.16 -0.56,-0.34 -0.85,-0.54zm13.25 1.35c-0.67,0 -1.31,-0.12 -1.9,-0.37 -0.59,-0.24 -1.11,-0.58 -1.56,-1 -0.44,-0.42 -0.79,-0.92 -1.05,-1.48 -0.26,-0.57 -0.39,-1.18 -0.39,-1.83 0,-0.64 0.13,-1.24 0.39,-1.81 0.26,-0.57 0.61,-1.07 1.05,-1.49 0.45,-0.43 0.97,-0.76 1.56,-1.01 0.59,-0.24 1.23,-0.37 1.9,-0.37 0.68,0 1.32,0.13 1.91,0.37 0.6,0.25 1.11,0.58 1.56,1.01 0.44,0.42 0.79,0.92 1.05,1.49 0.26,0.57 0.39,1.17 0.39,1.81 0,0.65 -0.13,1.26 -0.39,1.83 -0.26,0.56 -0.61,1.06 -1.05,1.48 -0.45,0.42 -0.96,0.76 -1.56,1 -0.59,0.25 -1.23,0.37 -1.91,0.37zm0.01 -7.74c-0.43,0 -0.84,0.08 -1.21,0.25 -0.37,0.17 -0.7,0.39 -0.98,0.67 -0.28,0.28 -0.5,0.61 -0.66,0.98 -0.17,0.37 -0.25,0.76 -0.25,1.16 0,0.41 0.08,0.8 0.25,1.17 0.16,0.37 0.38,0.7 0.66,0.98 0.28,0.29 0.61,0.51 0.98,0.68 0.37,0.17 0.78,0.25 1.21,0.25 0.43,0 0.83,-0.08 1.2,-0.25 0.37,-0.17 0.7,-0.39 0.98,-0.68 0.28,-0.28 0.5,-0.61 0.66,-0.98 0.17,-0.37 0.25,-0.76 0.25,-1.17 0,-0.4 -0.08,-0.79 -0.25,-1.16 -0.16,-0.37 -0.38,-0.7 -0.66,-0.98 -0.28,-0.28 -0.61,-0.5 -0.98,-0.67 -0.37,-0.17 -0.77,-0.25 -1.2,-0.25zm14.83 5.35c-0.2,0.37 -0.46,0.69 -0.76,0.98 -0.3,0.3 -0.63,0.55 -1,0.75 -0.37,0.21 -0.76,0.38 -1.19,0.49 -0.43,0.12 -0.87,0.17 -1.32,0.17 -0.67,0 -1.31,-0.12 -1.9,-0.37 -0.6,-0.24 -1.12,-0.58 -1.56,-1 -0.44,-0.42 -0.79,-0.92 -1.05,-1.48 -0.26,-0.57 -0.39,-1.17 -0.39,-1.81 0,-0.64 0.13,-1.25 0.39,-1.81 0.26,-0.57 0.61,-1.07 1.05,-1.49 0.44,-0.42 0.96,-0.76 1.56,-1 0.59,-0.25 1.23,-0.37 1.9,-0.37 0.45,0 0.89,0.06 1.32,0.17 0.43,0.12 0.82,0.28 1.19,0.49 0.37,0.21 0.7,0.46 1,0.75 0.3,0.29 0.56,0.61 0.76,0.97l-1.69 0.65c-0.14,-0.2 -0.3,-0.38 -0.48,-0.56 -0.19,-0.17 -0.39,-0.32 -0.62,-0.45 -0.22,-0.13 -0.46,-0.24 -0.71,-0.31 -0.25,-0.07 -0.51,-0.11 -0.77,-0.11 -0.43,0 -0.84,0.08 -1.21,0.25 -0.38,0.17 -0.7,0.39 -0.98,0.67 -0.27,0.28 -0.49,0.61 -0.66,0.98 -0.16,0.38 -0.24,0.76 -0.24,1.17 0,0.41 0.08,0.8 0.24,1.17 0.17,0.37 0.39,0.69 0.66,0.97 0.28,0.28 0.6,0.5 0.98,0.67 0.37,0.17 0.78,0.25 1.21,0.25 0.26,0 0.52,-0.03 0.77,-0.11 0.25,-0.07 0.49,-0.17 0.71,-0.31 0.23,-0.13 0.43,-0.28 0.62,-0.46 0.18,-0.17 0.34,-0.36 0.48,-0.56l1.69 0.65zm3.14 2.22l-1.81 0 0 -9 1.81 0 0 9zm3.81 -7.49l0 2.26 4.58 0 0 1.56 -4.58 0 0 2.12 5.16 0 0 1.55 -6.97 0 0 -9.01 6.97 0 0 1.52 -5.16 0zm12.95 0l-2.7 0 0 7.49 -1.81 0 0 -7.49 -2.71 0 0 -1.52 7.22 0 0 1.52zm8.98 -1.51c-0.25,0.38 -0.52,0.81 -0.84,1.29 -0.31,0.49 -0.63,0.98 -0.96,1.49 -0.33,0.5 -0.65,1 -0.97,1.49 -0.32,0.48 -0.6,0.93 -0.84,1.32l0 3.41 -1.81 0 0 -3.41c-0.56,-0.94 -1.15,-1.87 -1.78,-2.8 -0.63,-0.92 -1.23,-1.86 -1.79,-2.79l2.1 0c0.39,0.61 0.78,1.25 1.19,1.91 0.4,0.65 0.8,1.29 1.19,1.91 0.19,-0.29 0.39,-0.6 0.59,-0.93 0.21,-0.33 0.42,-0.66 0.62,-0.99 0.21,-0.33 0.41,-0.66 0.62,-0.98 0.2,-0.33 0.39,-0.63 0.57,-0.92l2.11 0z"/>
  <path fill="#4D4D4D" d="M190.33 65.19l0 2.23 4.56 0 0 1.59 -4.56 0 0 3.67 -1.8 0 0 -9.01 6.95 0 0 1.52 -5.15 0zm10.71 7.66c-0.67,0 -1.3,-0.12 -1.89,-0.37 -0.6,-0.24 -1.12,-0.58 -1.56,-1 -0.44,-0.42 -0.8,-0.92 -1.05,-1.48 -0.26,-0.57 -0.39,-1.18 -0.39,-1.83 0,-0.64 0.13,-1.24 0.39,-1.81 0.25,-0.57 0.61,-1.07 1.05,-1.49 0.44,-0.43 0.96,-0.76 1.56,-1.01 0.59,-0.24 1.22,-0.37 1.89,-0.37 0.68,0 1.32,0.13 1.92,0.37 0.59,0.25 1.11,0.58 1.55,1.01 0.45,0.42 0.8,0.92 1.06,1.49 0.25,0.57 0.38,1.17 0.38,1.81 0,0.65 -0.13,1.26 -0.38,1.83 -0.26,0.56 -0.61,1.06 -1.06,1.48 -0.44,0.42 -0.96,0.76 -1.55,1 -0.6,0.25 -1.24,0.37 -1.92,0.37zm0.01 -7.74c-0.43,0 -0.83,0.08 -1.2,0.25 -0.38,0.17 -0.7,0.39 -0.98,0.67 -0.28,0.28 -0.5,0.61 -0.67,0.98 -0.16,0.37 -0.24,0.76 -0.24,1.16 0,0.41 0.08,0.8 0.24,1.17 0.17,0.37 0.39,0.7 0.67,0.98 0.28,0.29 0.6,0.51 0.98,0.68 0.37,0.17 0.77,0.25 1.2,0.25 0.43,0 0.83,-0.08 1.21,-0.25 0.37,-0.17 0.7,-0.39 0.98,-0.68 0.28,-0.28 0.5,-0.61 0.66,-0.98 0.16,-0.37 0.24,-0.76 0.24,-1.17 0,-0.4 -0.08,-0.79 -0.24,-1.16 -0.16,-0.37 -0.38,-0.7 -0.66,-0.98 -0.28,-0.28 -0.61,-0.5 -0.98,-0.67 -0.38,-0.17 -0.78,-0.25 -1.21,-0.25zm7.99 7.57l-1.81 0 0 -9.01 4.3 0c0.48,0 0.92,0.07 1.33,0.22 0.4,0.16 0.74,0.37 1.02,0.64 0.29,0.28 0.51,0.61 0.67,0.99 0.16,0.38 0.24,0.8 0.24,1.25 0,0.68 -0.18,1.28 -0.54,1.79 -0.36,0.5 -0.83,0.87 -1.43,1.09 0.8,1 1.58,2.01 2.36,3.03l-2.16 0c-0.38,-0.47 -0.75,-0.94 -1.11,-1.41 -0.36,-0.48 -0.72,-0.97 -1.08,-1.46l-1.79 0 0 2.87zm0 -4.4l2.49 0c0.16,0 0.33,-0.03 0.5,-0.09 0.18,-0.06 0.34,-0.15 0.48,-0.28 0.13,-0.13 0.24,-0.29 0.34,-0.48 0.09,-0.18 0.13,-0.41 0.13,-0.66 0,-0.13 -0.02,-0.29 -0.05,-0.47 -0.04,-0.18 -0.1,-0.35 -0.21,-0.52 -0.1,-0.16 -0.24,-0.3 -0.43,-0.41 -0.19,-0.12 -0.45,-0.18 -0.76,-0.18l-2.49 0 0 3.09z"/>
  <path fill="#4D4D4D" d="M180.63 82.07c0,0.17 -0.01,0.33 -0.01,0.48 -0.01,0.13 -0.01,0.26 -0.01,0.39 0,0.13 -0.01,0.22 -0.01,0.29 -0.06,0.57 -0.22,1.09 -0.49,1.58 -0.27,0.48 -0.62,0.9 -1.05,1.25 -0.42,0.35 -0.91,0.62 -1.47,0.82 -0.55,0.19 -1.14,0.29 -1.75,0.29 -0.67,0 -1.3,-0.12 -1.9,-0.37 -0.59,-0.24 -1.11,-0.58 -1.56,-1 -0.44,-0.43 -0.8,-0.92 -1.06,-1.49 -0.26,-0.56 -0.39,-1.17 -0.39,-1.81 0,-0.64 0.13,-1.24 0.39,-1.81 0.26,-0.57 0.62,-1.07 1.06,-1.49 0.45,-0.43 0.97,-0.76 1.56,-1.01 0.6,-0.24 1.23,-0.37 1.9,-0.37 0.85,0 1.64,0.19 2.35,0.57 0.71,0.38 1.28,0.88 1.72,1.51l-1.55 0.9c-0.27,-0.38 -0.63,-0.71 -1.08,-0.97 -0.44,-0.26 -0.92,-0.39 -1.44,-0.39 -0.43,0 -0.83,0.08 -1.21,0.25 -0.37,0.17 -0.7,0.39 -0.98,0.67 -0.28,0.28 -0.5,0.61 -0.66,0.98 -0.17,0.37 -0.25,0.76 -0.25,1.16 0,0.41 0.08,0.8 0.25,1.17 0.16,0.37 0.38,0.7 0.66,0.98 0.28,0.28 0.61,0.5 0.98,0.67 0.38,0.17 0.78,0.25 1.21,0.25 0.33,0 0.64,-0.05 0.94,-0.14 0.31,-0.1 0.58,-0.23 0.83,-0.4 0.25,-0.17 0.47,-0.38 0.65,-0.62 0.19,-0.24 0.32,-0.5 0.41,-0.79l-3.49 0 0 -1.55 5.45 0zm2.68 -2.56l0 2.25 4.57 0 0 1.57 -4.57 0 0 2.12 5.15 0 0 1.55 -6.96 0 0 -9.02 6.96 0 0 1.53 -5.15 0zm14.39 7.49l-6.22 -5.36 0 5.36 -1.8 0 0 -9 0.19 0 6.21 5.44 0 -5.44 1.81 0 0 9 -0.19 0zm5.34 0l-3.73 0 0 -9.02 3.73 0c1.35,0 2.46,0.38 3.33,1.14 0.46,0.4 0.81,0.88 1.05,1.46 0.23,0.57 0.35,1.2 0.35,1.91 0,0.72 -0.12,1.36 -0.35,1.93 -0.24,0.57 -0.59,1.06 -1.05,1.46 -0.43,0.37 -0.92,0.65 -1.48,0.84 -0.56,0.18 -1.18,0.28 -1.85,0.28zm-1.92 -1.53l1.93 0c0.33,0 0.67,-0.04 1.02,-0.11 0.34,-0.07 0.65,-0.22 0.93,-0.44 0.28,-0.21 0.51,-0.52 0.69,-0.9 0.18,-0.39 0.27,-0.89 0.27,-1.52 0,-0.62 -0.09,-1.13 -0.27,-1.52 -0.18,-0.39 -0.41,-0.69 -0.69,-0.9 -0.29,-0.22 -0.6,-0.36 -0.95,-0.43 -0.34,-0.08 -0.68,-0.11 -1,-0.11l-1.93 0 0 5.93zm9.11 -5.96l0 2.25 4.57 0 0 1.57 -4.57 0 0 2.12 5.15 0 0 1.55 -6.96 0 0 -9.02 6.96 0 0 1.53 -5.15 0zm8.17 7.49l-1.81 0 0 -9.02 4.3 0c0.48,0 0.93,0.08 1.33,0.23 0.4,0.15 0.74,0.37 1.03,0.64 0.28,0.28 0.5,0.6 0.66,0.99 0.16,0.38 0.24,0.8 0.24,1.25 0,0.68 -0.18,1.27 -0.53,1.78 -0.36,0.51 -0.84,0.88 -1.44,1.1 0.8,1 1.58,2.01 2.36,3.03l-2.16 0c-0.37,-0.47 -0.75,-0.94 -1.1,-1.42 -0.37,-0.47 -0.73,-0.96 -1.09,-1.45l-1.79 0 0 2.87zm0 -4.4l2.49 0c0.16,0 0.33,-0.03 0.51,-0.09 0.17,-0.06 0.33,-0.16 0.47,-0.28 0.13,-0.13 0.25,-0.29 0.34,-0.48 0.09,-0.19 0.13,-0.41 0.13,-0.66 0,-0.13 -0.01,-0.29 -0.05,-0.47 -0.03,-0.18 -0.1,-0.35 -0.2,-0.52 -0.11,-0.16 -0.25,-0.3 -0.44,-0.42 -0.19,-0.11 -0.44,-0.17 -0.76,-0.17l-2.49 0 0 3.09z"/>
  <path fill="#4D4D4D" d="M239.19 78l0 9 -1.81 0 0 -4.56 -2.96 3.39 -2.94 -3.39 0 4.56 -1.81 0 0 -9 0.11 0 4.64 5.19 4.65 -5.19 0.12 0zm3.24 1.51l0 2.25 4.57 0 0 1.57 -4.57 0 0 2.12 5.15 0 0 1.55 -6.96 0 0 -9.02 6.96 0 0 1.53 -5.15 0zm10.09 7.49l-3.72 0 0 -9.02 3.72 0c1.35,0 2.47,0.38 3.33,1.14 0.47,0.4 0.82,0.88 1.05,1.46 0.24,0.57 0.36,1.2 0.36,1.91 0,0.72 -0.12,1.36 -0.36,1.93 -0.23,0.57 -0.58,1.06 -1.05,1.46 -0.42,0.37 -0.91,0.65 -1.47,0.84 -0.57,0.18 -1.18,0.28 -1.86,0.28zm-1.91 -1.53l1.92 0c0.34,0 0.68,-0.04 1.02,-0.11 0.35,-0.07 0.66,-0.22 0.94,-0.44 0.28,-0.21 0.51,-0.52 0.69,-0.9 0.18,-0.39 0.27,-0.89 0.27,-1.52 0,-0.62 -0.09,-1.13 -0.27,-1.52 -0.18,-0.39 -0.41,-0.69 -0.7,-0.9 -0.28,-0.22 -0.6,-0.36 -0.94,-0.43 -0.35,-0.08 -0.68,-0.11 -1.01,-0.11l-1.92 0 0 5.93zm9.63 1.53l-1.81 0 0 -9 1.81 0 0 9zm10.34 -2.22c-0.21,0.36 -0.46,0.69 -0.77,0.98 -0.3,0.29 -0.63,0.54 -1,0.75 -0.36,0.21 -0.76,0.37 -1.18,0.49 -0.43,0.11 -0.87,0.17 -1.33,0.17 -0.67,0 -1.3,-0.12 -1.9,-0.37 -0.59,-0.24 -1.11,-0.58 -1.55,-1 -0.45,-0.43 -0.8,-0.92 -1.06,-1.49 -0.26,-0.56 -0.39,-1.17 -0.39,-1.81 0,-0.64 0.13,-1.24 0.39,-1.81 0.26,-0.56 0.61,-1.06 1.06,-1.48 0.44,-0.42 0.96,-0.76 1.55,-1 0.6,-0.25 1.23,-0.37 1.9,-0.37 0.46,0 0.9,0.05 1.33,0.17 0.42,0.11 0.82,0.27 1.18,0.48 0.37,0.21 0.7,0.46 1,0.76 0.31,0.29 0.56,0.61 0.77,0.96l-1.7 0.66c-0.13,-0.2 -0.3,-0.39 -0.48,-0.56 -0.19,-0.17 -0.39,-0.32 -0.61,-0.45 -0.23,-0.14 -0.46,-0.24 -0.71,-0.31 -0.25,-0.08 -0.51,-0.11 -0.78,-0.11 -0.43,0 -0.83,0.08 -1.21,0.25 -0.37,0.17 -0.7,0.39 -0.97,0.67 -0.28,0.28 -0.5,0.61 -0.66,0.98 -0.17,0.37 -0.25,0.76 -0.25,1.16 0,0.41 0.08,0.8 0.25,1.17 0.16,0.37 0.38,0.7 0.66,0.98 0.27,0.28 0.6,0.5 0.97,0.67 0.38,0.17 0.78,0.25 1.21,0.25 0.27,0 0.53,-0.04 0.78,-0.11 0.25,-0.07 0.48,-0.18 0.71,-0.31 0.22,-0.13 0.42,-0.28 0.61,-0.46 0.18,-0.18 0.35,-0.36 0.48,-0.56l1.7 0.65zm2.81 2.22l-1.81 0 0 -9 1.81 0 0 9zm9.7 0l-6.21 -5.36 0 5.36 -1.81 0 0 -9 0.19 0 6.22 5.44 0 -5.44 1.81 0 0 9 -0.2 0zm3.43 -7.49l0 2.25 4.57 0 0 1.57 -4.57 0 0 2.12 5.15 0 0 1.55 -6.96 0 0 -9.02 6.96 0 0 1.53 -5.15 0z"/>
  <g id="_1431560311024">
   <polygon fill="#4D4D4D" points="282.06,34.55 269.71,49.38 257.42,34.56 257.42,54.41 248.27,54.41 248.27,11.81 249.68,11.81 269.71,35.36 289.8,11.81 291.21,11.81 291.21,54.41 282.06,54.41 "/>
   <path fill="#4D4D4D" d="M232.82 38.9l-15.05 0 0 -8.36 25.14 0 -0.03 0.65c-0.04,0.72 -0.06,1.45 -0.06,2.17l0 0.04c-0.04,0.58 -0.06,1.16 -0.06,1.75 0,0.46 0,0.94 -0.06,1.39 -0.23,2.63 -0.94,5.14 -2.19,7.47 -1.21,2.26 -2.78,4.25 -4.72,5.92 -1.97,1.69 -4.21,2.97 -6.64,3.87 -2.53,0.95 -5.18,1.4 -7.88,1.4 -2.97,0 -5.84,-0.57 -8.57,-1.75 -2.62,-1.14 -4.99,-2.72 -7.02,-4.74 -2.04,-2.02 -3.62,-4.38 -4.77,-7.01 -1.2,-2.72 -1.76,-5.59 -1.76,-8.56 0,-2.98 0.57,-5.86 1.76,-8.59 1.15,-2.64 2.73,-5.01 4.77,-7.04 2.03,-2.02 4.4,-3.6 7.02,-4.74 2.73,-1.19 5.6,-1.75 8.57,-1.75 3.74,0 7.29,0.86 10.57,2.68 3.15,1.76 5.77,4.14 7.76,7.16l0.36 0.53 -7.84 4.76 -0.32 -0.48c-1.2,-1.75 -2.74,-3.17 -4.55,-4.29 -1.83,-1.14 -3.82,-1.72 -5.98,-1.72 -1.76,0 -3.44,0.35 -5.03,1.1 -1.55,0.73 -2.94,1.72 -4.12,2.95 -1.2,1.26 -2.12,2.71 -2.79,4.32 -0.69,1.63 -1.03,3.34 -1.03,5.11 0,1.78 0.33,3.5 1.03,5.14 0.67,1.59 1.59,3.03 2.79,4.28 1.18,1.24 2.57,2.22 4.12,2.95 1.59,0.75 3.27,1.11 5.03,1.11 1.34,0 2.66,-0.21 3.94,-0.62 1.24,-0.41 2.39,-0.99 3.45,-1.76 1.05,-0.76 1.96,-1.66 2.73,-2.7 0.6,-0.81 1.08,-1.7 1.43,-2.64z"/>
   <path fill="#4D4D4D" d="M122.41 48.51l4.98 -7.34 0.51 0.35c2.01,1.39 4.13,2.61 6.34,3.65 2.11,1 4.33,1.5 6.67,1.5 1.07,0 2.18,-0.11 3.2,-0.45 0.82,-0.27 1.62,-0.63 2.32,-1.15 0.55,-0.42 1.03,-0.92 1.35,-1.55 0.26,-0.52 0.44,-1.08 0.44,-1.67 0,-0.65 -0.19,-1.22 -0.62,-1.72 -0.49,-0.57 -1.14,-0.98 -1.82,-1.28 -0.92,-0.41 -1.91,-0.7 -2.89,-0.93 -1.18,-0.27 -2.37,-0.51 -3.56,-0.73 -0.97,-0.17 -1.93,-0.35 -2.89,-0.54 -1.17,-0.22 -2.33,-0.51 -3.47,-0.86 -1.22,-0.38 -2.41,-0.87 -3.55,-1.46 -1.18,-0.61 -2.25,-1.38 -3.2,-2.31 -0.99,-0.97 -1.75,-2.1 -2.31,-3.36 -0.64,-1.43 -0.88,-3.01 -0.88,-4.58 0,-2.2 0.4,-4.44 1.57,-6.34 1,-1.65 2.32,-3 3.96,-4 1.64,-0.99 3.42,-1.65 5.29,-2.03 1.82,-0.37 3.67,-0.58 5.53,-0.58 1.58,0 3.18,0.09 4.74,0.35 1.33,0.22 2.64,0.55 3.91,1.02 1.22,0.46 2.4,1.02 3.52,1.69 1.24,0.74 2.45,1.54 3.63,2.37l0.51 0.36 -5.13 7.22 -0.49 -0.35c-1.73,-1.19 -3.58,-2.27 -5.54,-3.04 -1.76,-0.7 -3.6,-1.03 -5.49,-1.03 -0.73,0 -1.48,0.1 -2.2,0.24 -0.8,0.16 -1.58,0.41 -2.31,0.77 -0.66,0.32 -1.25,0.74 -1.73,1.29 -0.43,0.5 -0.62,1.07 -0.62,1.72 0,0.66 0.23,1.2 0.72,1.65 0.6,0.57 1.35,0.98 2.12,1.29 0.98,0.39 2,0.7 3.03,0.94 1.1,0.25 2.19,0.52 3.29,0.79 0.91,0.22 1.84,0.4 2.76,0.56 1.15,0.2 2.29,0.48 3.4,0.81 1.22,0.35 2.4,0.83 3.53,1.39 1.18,0.6 2.25,1.36 3.19,2.3 0.99,0.99 1.73,2.18 2.28,3.48 0.65,1.55 0.87,3.28 0.87,4.96 0,2.01 -0.32,4.04 -1.19,5.87 -0.8,1.66 -1.94,3.06 -3.42,4.16 -1.55,1.15 -3.32,1.93 -5.18,2.44 -2.13,0.59 -4.35,0.82 -6.56,0.82 -1.93,0 -3.91,-0.12 -5.8,-0.49 -1.57,-0.31 -3.13,-0.74 -4.61,-1.34 -1.37,-0.55 -2.7,-1.22 -3.95,-2 -1.28,-0.8 -2.53,-1.64 -3.76,-2.51l-0.49 -0.35z"/>
  </g>
  <path fill="#0D8894" d="M227.06 65.19l0 2.26 4.57 0 0 1.56 -4.57 0 0 2.12 5.15 0 0 1.55 -6.96 0 0 -9.01 6.96 0 0 1.52 -5.15 0zm14.91 -1.51l-4.5 9 -0.1 0 -4.49 -9 1.99 0 2.55 5.22 2.54 -5.22 2.01 0zm2.84 9l-1.81 0 0 -9 1.81 0 0 9zm5.73 0l-3.73 0 0 -9.01 3.73 0c1.35,0 2.46,0.37 3.33,1.13 0.46,0.4 0.81,0.89 1.05,1.46 0.23,0.57 0.35,1.21 0.35,1.91 0,0.72 -0.12,1.36 -0.35,1.93 -0.24,0.57 -0.59,1.06 -1.05,1.46 -0.43,0.37 -0.92,0.65 -1.48,0.84 -0.56,0.19 -1.18,0.28 -1.85,0.28zm-1.92 -1.53l1.92 0c0.34,0 0.68,-0.03 1.03,-0.11 0.34,-0.07 0.65,-0.22 0.93,-0.43 0.28,-0.22 0.51,-0.52 0.69,-0.91 0.18,-0.38 0.27,-0.89 0.27,-1.51 0,-0.63 -0.09,-1.13 -0.27,-1.52 -0.18,-0.39 -0.41,-0.7 -0.7,-0.91 -0.28,-0.21 -0.59,-0.36 -0.94,-0.43 -0.34,-0.08 -0.68,-0.11 -1.01,-0.11l-1.92 0 0 5.93zm9.43 -5.96l0 2.26 4.57 0 0 1.56 -4.57 0 0 2.12 5.15 0 0 1.55 -6.96 0 0 -9.01 6.96 0 0 1.52 -5.15 0zm14.71 7.49l-6.21 -5.36 0 5.36 -1.81 0 0 -9 0.2 0 6.21 5.44 0 -5.44 1.81 0 0 9 -0.2 0zm10.6 -2.22c-0.21,0.37 -0.46,0.69 -0.76,0.98 -0.31,0.3 -0.64,0.55 -1.01,0.75 -0.36,0.21 -0.76,0.38 -1.18,0.49 -0.43,0.12 -0.87,0.17 -1.33,0.17 -0.67,0 -1.3,-0.12 -1.9,-0.37 -0.59,-0.24 -1.11,-0.58 -1.55,-1 -0.45,-0.42 -0.8,-0.92 -1.06,-1.48 -0.25,-0.57 -0.38,-1.17 -0.38,-1.81 0,-0.64 0.13,-1.25 0.38,-1.81 0.26,-0.57 0.61,-1.07 1.06,-1.49 0.44,-0.42 0.96,-0.76 1.55,-1 0.6,-0.25 1.23,-0.37 1.9,-0.37 0.46,0 0.9,0.06 1.33,0.17 0.42,0.12 0.82,0.28 1.18,0.49 0.37,0.21 0.7,0.46 1.01,0.75 0.3,0.29 0.55,0.61 0.76,0.97l-1.69 0.65c-0.14,-0.2 -0.3,-0.38 -0.49,-0.56 -0.18,-0.17 -0.39,-0.32 -0.61,-0.45 -0.23,-0.13 -0.46,-0.24 -0.71,-0.31 -0.25,-0.07 -0.51,-0.11 -0.78,-0.11 -0.43,0 -0.83,0.08 -1.21,0.25 -0.37,0.17 -0.7,0.39 -0.97,0.67 -0.28,0.28 -0.5,0.61 -0.66,0.98 -0.16,0.38 -0.25,0.76 -0.25,1.17 0,0.41 0.09,0.8 0.25,1.17 0.16,0.37 0.38,0.69 0.66,0.97 0.27,0.28 0.6,0.5 0.97,0.67 0.38,0.17 0.78,0.25 1.21,0.25 0.27,0 0.53,-0.03 0.78,-0.11 0.25,-0.07 0.48,-0.17 0.71,-0.31 0.22,-0.13 0.43,-0.28 0.61,-0.46 0.19,-0.17 0.35,-0.36 0.49,-0.56l1.69 0.65zm2.88 -5.27l0 2.26 4.57 0 0 1.56 -4.57 0 0 2.12 5.15 0 0 1.55 -6.96 0 0 -9.01 6.96 0 0 1.52 -5.15 0z"/>
  <path fill="#4D4D4D" d="M131.47 80.49c0,0.18 -0.04,0.38 -0.11,0.58 -0.08,0.21 -0.19,0.4 -0.32,0.57 -0.13,0.17 -0.3,0.32 -0.49,0.44 -0.19,0.12 -0.39,0.18 -0.62,0.19 0.24,0.02 0.47,0.08 0.7,0.19 0.22,0.11 0.43,0.26 0.61,0.45 0.18,0.19 0.33,0.4 0.44,0.65 0.12,0.24 0.18,0.51 0.18,0.78 0,0.5 -0.08,0.91 -0.23,1.25 -0.16,0.34 -0.37,0.62 -0.64,0.83 -0.26,0.2 -0.58,0.35 -0.93,0.44 -0.36,0.09 -0.74,0.14 -1.15,0.14l-4.36 0 0 -9.02 4.16 0c0.38,0 0.73,0.04 1.07,0.11 0.34,0.07 0.63,0.19 0.88,0.38 0.25,0.19 0.45,0.44 0.59,0.77 0.15,0.32 0.22,0.74 0.22,1.25zm-2.56 4.98c0.16,0 0.31,-0.03 0.44,-0.1 0.14,-0.07 0.26,-0.17 0.36,-0.29 0.11,-0.12 0.19,-0.25 0.25,-0.39 0.06,-0.14 0.09,-0.29 0.09,-0.44 0,-0.3 -0.12,-0.56 -0.35,-0.76 -0.24,-0.21 -0.57,-0.31 -0.98,-0.31l-2.36 0 0 2.29 2.55 0zm-2.55 -3.82l2.22 0c0.18,0 0.34,-0.03 0.47,-0.1 0.13,-0.06 0.24,-0.15 0.33,-0.26 0.1,-0.1 0.16,-0.23 0.21,-0.36 0.05,-0.14 0.07,-0.27 0.07,-0.4 0,-0.14 -0.02,-0.26 -0.07,-0.39 -0.06,-0.12 -0.13,-0.23 -0.21,-0.32 -0.09,-0.09 -0.19,-0.17 -0.3,-0.22 -0.12,-0.06 -0.24,-0.09 -0.37,-0.09l-2.35 0 0 2.14zm5.15 5.35l4.83 -9 0.18 0 4.83 9 -1.96 0 -0.74 -1.42 -4.45 0 -0.73 1.42 -1.96 0zm3.56 -2.92l2.7 0 -1.34 -2.72 -1.36 2.72zm5.77 1.74l0.98 -1.38c0.47,0.31 0.96,0.58 1.46,0.8 0.51,0.23 1.04,0.34 1.59,0.34 0.29,0 0.55,-0.03 0.77,-0.1 0.22,-0.07 0.41,-0.16 0.57,-0.27 0.15,-0.11 0.27,-0.24 0.35,-0.39 0.08,-0.14 0.11,-0.28 0.11,-0.42 0,-0.18 -0.05,-0.33 -0.17,-0.46 -0.12,-0.13 -0.27,-0.23 -0.47,-0.32 -0.19,-0.08 -0.42,-0.15 -0.68,-0.21 -0.26,-0.05 -0.54,-0.11 -0.82,-0.16 -0.19,-0.03 -0.41,-0.07 -0.66,-0.11 -0.25,-0.05 -0.51,-0.11 -0.77,-0.19 -0.27,-0.08 -0.53,-0.18 -0.79,-0.31 -0.26,-0.12 -0.49,-0.28 -0.7,-0.48 -0.21,-0.19 -0.37,-0.42 -0.5,-0.69 -0.12,-0.26 -0.18,-0.58 -0.18,-0.94 0,-0.52 0.11,-0.96 0.33,-1.31 0.23,-0.35 0.51,-0.62 0.86,-0.82 0.35,-0.21 0.74,-0.35 1.16,-0.43 0.43,-0.08 0.84,-0.12 1.24,-0.12 0.39,0 0.75,0.02 1.06,0.07 0.31,0.05 0.59,0.12 0.86,0.22 0.27,0.09 0.53,0.21 0.78,0.35 0.26,0.15 0.53,0.32 0.82,0.52l-1 1.35c-0.45,-0.3 -0.88,-0.52 -1.3,-0.68 -0.41,-0.15 -0.84,-0.23 -1.3,-0.23 -0.16,0 -0.33,0.02 -0.53,0.05 -0.2,0.04 -0.39,0.1 -0.56,0.18 -0.18,0.08 -0.32,0.19 -0.44,0.32 -0.12,0.12 -0.18,0.28 -0.18,0.46 0,0.18 0.07,0.33 0.21,0.45 0.14,0.13 0.32,0.23 0.53,0.31 0.22,0.08 0.45,0.15 0.71,0.21 0.26,0.06 0.51,0.12 0.75,0.17 0.18,0.04 0.39,0.09 0.64,0.13 0.25,0.04 0.5,0.1 0.76,0.17 0.26,0.07 0.53,0.17 0.78,0.3 0.26,0.12 0.49,0.28 0.69,0.47 0.21,0.19 0.37,0.43 0.5,0.71 0.12,0.29 0.18,0.63 0.18,1.03 0,0.47 -0.08,0.88 -0.26,1.22 -0.17,0.35 -0.41,0.63 -0.73,0.86 -0.32,0.22 -0.7,0.39 -1.14,0.51 -0.44,0.11 -0.92,0.17 -1.46,0.17 -0.49,0 -0.92,-0.03 -1.3,-0.1 -0.37,-0.07 -0.71,-0.17 -1.02,-0.29 -0.31,-0.12 -0.61,-0.26 -0.88,-0.42 -0.28,-0.17 -0.56,-0.35 -0.85,-0.54zm10.32 -6.31l0 2.25 4.57 0 0 1.57 -4.57 0 0 2.12 5.15 0 0 1.55 -6.96 0 0 -9.02 6.96 0 0 1.53 -5.15 0zm10.09 7.49l-3.73 0 0 -9.02 3.73 0c1.35,0 2.46,0.38 3.33,1.14 0.46,0.4 0.81,0.88 1.05,1.46 0.24,0.57 0.36,1.2 0.36,1.91 0,0.72 -0.12,1.36 -0.36,1.93 -0.24,0.57 -0.59,1.06 -1.05,1.46 -0.42,0.37 -0.91,0.65 -1.48,0.84 -0.56,0.18 -1.18,0.28 -1.85,0.28zm-1.92 -1.53l1.93 0c0.33,0 0.67,-0.04 1.02,-0.11 0.34,-0.07 0.65,-0.22 0.93,-0.44 0.28,-0.21 0.51,-0.52 0.7,-0.9 0.18,-0.39 0.27,-0.89 0.27,-1.52 0,-0.62 -0.09,-1.13 -0.27,-1.52 -0.19,-0.39 -0.42,-0.69 -0.7,-0.9 -0.29,-0.22 -0.6,-0.36 -0.94,-0.43 -0.35,-0.08 -0.68,-0.11 -1.01,-0.11l-1.93 0 0 5.93z"/>
  <polygon fill="#0D8894" points="171.91,20 171.91,29.13 191.94,29.13 191.94,37.54 171.91,37.54 171.91,46.05 194.49,46.05 194.49,54.41 162.76,54.41 162.76,11.76 194.49,11.76 194.49,20 "/>
 </g>
</svg>
