<svg width="33" height="33" viewBox="0 0 33 33" fill="none" xmlns="http://www.w3.org/2000/svg">
<rect x="0.803223" y="0.632812" width="32.0843" height="32.0843" rx="16.0422" fill="#26ADE3"/>
<g clip-path="url(#clip0_2850_6812)">
<path d="M12.9698 22.6912H10.059V13.3197H12.9698V22.6912ZM11.5128 12.0413C10.5823 12.0413 9.82715 11.2705 9.82715 10.34C9.82715 9.89291 10.0047 9.46415 10.3209 9.14802C10.637 8.83189 11.0658 8.6543 11.5128 8.6543C11.9599 8.6543 12.3887 8.83189 12.7048 9.14802C13.0209 9.46415 13.1985 9.89291 13.1985 10.34C13.1985 11.2705 12.4434 12.0413 11.5128 12.0413ZM23.8609 22.6912H20.9564V18.1292C20.9564 17.042 20.9345 15.6477 19.443 15.6477C17.9297 15.6477 17.6978 16.8289 17.6978 18.0509V22.6912H14.7902V13.3197H17.5819V14.598H17.6226C18.0112 13.8617 18.9605 13.0847 20.3768 13.0847C23.322 13.0847 23.864 15.0242 23.864 17.5433V22.6912H23.8609Z" fill="white"/>
</g>
<defs>
<clipPath id="clip0_2850_6812">
<rect width="14.0369" height="16.0422" fill="white" transform="translate(9.82715 8.6543)"/>
</clipPath>
</defs>
</svg>
