<?xml version="1.0" encoding="UTF-8"?><svg id="Layer_2" xmlns="http://www.w3.org/2000/svg" width="48" height="48" viewBox="0 0 48 48"><g id="Layer_1-2"><path d="M24.05,0C10.72,0,0,10.82,0,24.2c0,10.72,6.89,19.77,16.43,22.97,1.18.25,1.62-.54,1.62-1.18,0-.54-.05-2.51-.05-4.48-6.69,1.43-8.07-2.9-8.07-2.9-1.08-2.8-2.66-3.54-2.66-3.54-2.16-1.48.15-1.48.15-1.48,2.41.15,3.69,2.51,3.69,2.51,2.16,3.69,5.61,2.66,6.98,2.02.2-1.57.84-2.66,1.52-3.25-5.31-.54-10.92-2.66-10.92-11.95,0-2.66.93-4.82,2.46-6.49-.25-.59-1.08-3.1.25-6.39,0,0,2.02-.64,6.59,2.51,1.97-.54,3.98-.79,6-.79s4.08.3,6,.79c4.57-3.15,6.59-2.51,6.59-2.51,1.33,3.34.49,5.8.25,6.39,1.57,1.67,2.46,3.84,2.46,6.49,0,9.3-5.61,11.36-10.97,11.95.89.74,1.62,2.21,1.62,4.48,0,3.25-.05,5.85-.05,6.64,0,.64.44,1.43,1.62,1.18,9.59-3.2,16.48-12.25,16.48-22.97C48.04,10.82,37.27,0,24.04,0h0Z" fill="#9b9b9b" fill-rule="evenodd"/></g></svg>