<svg xmlns="http://www.w3.org/2000/svg" width="20" height="20" viewBox="0 0 20 20">
  <path fill="#FFFFFF" fill-rule="evenodd" d="M20.006,18.5773333 L14.4633333,13.0346667 C15.5793333,11.6586667 16.25,9.908 16.25,8 C16.25,3.58133333 12.6686667,0 8.25,0 C3.83133333,0 0.25,3.58133333 0.25,8 C0.25,12.4186667 3.83133333,16 8.25,16 C10.1566667,16 11.9086667,15.3293333 13.2846667,14.2133333 L18.8273333,19.756 C18.978,19.9066667 19.1873333,20 19.4166667,20 C19.8766667,20 20.25,19.6266667 20.25,19.1666667 C20.25,18.936 20.1566667,18.7266667 20.006,18.5773333 L20.006,18.5773333 Z M1.91666667,8 C1.91666667,4.50666667 4.75666667,1.66666667 8.25,1.66666667 C11.7433333,1.66666667 14.5833333,4.50666667 14.5833333,8 C14.5833333,11.4933333 11.7433333,14.3333333 8.25,14.3333333 C4.75666667,14.3333333 1.91666667,11.4933333 1.91666667,8 L1.91666667,8 Z"/>
</svg>
