<svg xmlns="http://www.w3.org/2000/svg" width="48" height="48" viewBox="0 0 48 48">
  <path fill="#9B9B9B" fill-rule="evenodd" d="M24.4077199,27.2715486 C24.4691298,26.4099227 24.9101451,25.9078675 26.2,26 C27.9530765,26.0876538 31.0891276,26.4058034 34.8,24.3952962 L34.8,14.2 C34.8,12.5 34.2,11.8 32.6,11.8 L15.6,11.8 C13.9,11.8 13.4,12.3 13.4,14.2 L13.4,24.5017072 C17.0234213,26.3944147 20.0785068,26.0860747 21.8,26 C22.1620581,25.9741387 22.4572355,25.9950939 22.69591,26.0576766 C22.870481,26.0393545 23.1312946,26.1664094 23.5,26.5 C23.8097701,26.7942816 24.1123434,27.0525792 24.4077199,27.2715486 Z M24.4,29.787679 C24.4,31.9429641 24.4,34.8258385 24.4,34.7 C24.3,40 34.6,38.3 31.6,28.1 C34.5,27 36.3,25.5 37.3,24.3 C37.8,23.6 37.2,22.8 36.4,23.4 C36.2996834,23.4706776 36.1996786,23.5395359 36.1,23.6066199 L36.1,13 C36.1,11.5 35,10.3 33.6,10.3 L14.4,10.3 C13,10.3 11.9,11.5 11.9,13 L11.9,23.6066199 C11.8003214,23.5395359 11.7003166,23.4706776 11.6,23.4 C10.8,22.8 10.2,23.6 10.7,24.3 C11.7,25.5 13.5,27 16.4,28.1 C13.4,38.3 23.7,40 23.6,34.7 C23.6,34.8303177 23.6,31.7339214 23.6,29.5604621 C23.6338665,29.5793648 23.667264,29.5927253 23.7,29.6 C23.9596989,29.6649247 24.1866128,29.7298495 24.4,29.787679 Z M24,48 C37.254834,48 48,37.254834 48,24 C48,10.745166 37.254834,0 24,0 C10.745166,0 0,10.745166 0,24 C0,37.254834 10.745166,48 24,48 Z M23.6,21.6 C23.6,23.3 22.1,24.7 20.3,24.7 C18.5,24.7 17,23.3 17,21.6 C17,19.9 18.5,18.5 20.3,18.5 C22.2,18.5 23.6,19.9 23.6,21.6 Z M24.7,21.6 C24.7,23.3 26.2,24.7 28,24.7 C29.8,24.7 31.3,23.3 31.3,21.6 C31.3,19.9 29.8,18.5 28,18.5 C26.2,18.5 24.7,19.9 24.7,21.6 Z"/>
</svg>
