<?xml version="1.0" encoding="UTF-8"?><svg id="Layer_2" xmlns="http://www.w3.org/2000/svg" width="48" height="48" viewBox="0 0 48 48"><g id="Layer_2-2"><circle cx="24" cy="24" r="24" fill="#9b9b9b"/></g><path d="M24.28,42.14h-.01c-5.41-.04-9.57-1.82-12.37-5.31-2.49-3.1-3.77-7.41-3.82-12.82v-.03c.04-5.41,1.33-9.72,3.82-12.82,2.79-3.48,6.96-5.27,12.37-5.31h.02c4.15.03,7.62,1.09,10.32,3.17,2.54,1.95,4.32,4.73,5.31,8.27l-3.08.86c-1.67-5.99-5.89-9.05-12.55-9.09-4.4.03-7.72,1.41-9.89,4.11-2.03,2.52-3.07,6.17-3.11,10.83.04,4.66,1.09,8.31,3.11,10.83,2.16,2.69,5.49,4.08,9.89,4.11,3.96-.03,6.59-.95,8.77-3.09,2.49-2.44,2.44-5.43,1.65-7.25-.47-1.07-1.32-1.97-2.47-2.64-.29,2.04-.94,3.7-1.94,4.95-1.34,1.67-3.23,2.58-5.64,2.71-1.82.1-3.57-.33-4.93-1.21-1.61-1.04-2.55-2.63-2.65-4.48-.1-1.8.62-3.45,2.01-4.66,1.33-1.15,3.2-1.83,5.42-1.95,1.63-.09,3.16-.02,4.57.22-.19-1.12-.57-2.01-1.13-2.65-.78-.88-1.98-1.34-3.57-1.35h-.04c-1.28,0-3.01.35-4.12,1.99l-2.66-1.79c1.48-2.2,3.88-3.41,6.77-3.41h.07c4.83.03,7.71,2.98,7.99,8.14.16.07.33.14.48.22,2.25,1.06,3.9,2.66,4.77,4.64,1.2,2.75,1.32,7.24-2.34,10.82-2.79,2.74-6.19,3.97-11,4h-.01,0ZM25.8,24.47c-.37,0-.74.01-1.12.03-2.78.16-4.51,1.43-4.41,3.24.1,1.9,2.2,2.78,4.21,2.67,1.85-.1,4.26-.82,4.66-5.61-1.02-.22-2.15-.33-3.35-.33Z" fill="#fff"/></svg>