<svg xmlns="http://www.w3.org/2000/svg" width="48" height="48" viewBox="0 0 48 48">
  <g id="Layer_1-2">
    <path
      d="m24,0C10.75,0,0,10.75,0,24s10.75,24,24,24,24-10.75,24-24S37.25,0,24,0h0Zm10.83,18.33c0,.25.02.49.02.74,0,7.53-5.73,16.22-16.22,16.22-3.22,0-6.22-.94-8.74-2.56.45.05.9.08,1.36.08,2.67,0,5.13-.91,7.08-2.44-2.49-.05-4.6-1.69-5.33-3.96.35.07.7.1,1.07.1.52,0,1.02-.07,1.5-.2-2.61-.52-4.57-2.83-4.57-5.59v-.07c.77.43,1.65.68,2.58.71-1.53-1.02-2.54-2.77-2.54-4.75,0-1.04.28-2.02.77-2.87,2.81,3.45,7.01,5.72,11.75,5.96-.12-.53-.17-1.09-.14-1.66.16-2.65,2.23-4.91,4.86-5.28,1.97-.28,3.78.45,4.99,1.74,1.3-.26,2.52-.73,3.62-1.38-.43,1.33-1.53,2.49-2.7,3.19,1.19-.22,2.45-.6,3.47-1.06-.76,1.14-1.73,2.27-2.84,3.07h0Z"
      fill="#9b9b9b" fill-rule="evenodd" stroke-width="0"></path>
  </g>
  <g id="Layer_2-2">
    <ellipse cx="24.17" cy="23.65" rx="20.2" ry="19.57" fill="#9b9b9b" stroke-width="0"></ellipse>
    <path
      d="m26.52,21.93l9.85-11.45h-2.33l-8.56,9.94-6.83-9.94h-7.88l10.33,15.04-10.33,12.01h2.34l9.03-10.5,7.22,10.5h7.88l-10.72-15.6h0Zm-3.2,3.72l-1.05-1.5-8.33-11.92h3.59l6.72,9.62,1.05,1.5,8.74,12.5h-3.59l-7.13-10.2h0Z"
      fill="#fff" stroke-width="0"></path>
  </g>
</svg>
