<svg xmlns="http://www.w3.org/2000/svg" width="48" height="48" viewBox="0 0 48 48">
  <path fill="#9B9B9B" fill-rule="evenodd" d="M31.6216,29.872 C31.3992,29.872 31.2392,29.9344 31.1416,30.0672 C31.0448,30.192 30.9976,30.4064 30.9976,30.704 L30.9976,31.4208 L32.232,31.4208 L32.232,30.704 C32.232,30.4064 32.1824,30.192 32.084,30.0672 C31.9912,29.9344 31.8336,29.872 31.6216,29.872 L31.6216,29.872 Z M26.8072,29.8472 C26.9944,29.8472 27.1408,29.908 27.2424,30.0312 C27.3408,30.1544 27.3904,30.3376 27.3904,30.5768 L27.3904,34.244 C27.3904,34.4728 27.348,34.6336 27.268,34.7328 C27.188,34.8344 27.0632,34.884 26.892,34.884 C26.7736,34.884 26.6624,34.8576 26.5552,34.8072 C26.4472,34.7576 26.336,34.6704 26.2232,34.5568 L26.2232,30.132 C26.3184,30.0344 26.4144,29.9616 26.5112,29.9152 C26.608,29.868 26.7064,29.8472 26.8072,29.8472 L26.8072,29.8472 Z M30.9984,32.5264 L30.9984,33.864 C30.9984,34.2384 31.044,34.4976 31.1344,34.6432 C31.2288,34.788 31.3848,34.8584 31.608,34.8584 C31.8392,34.8584 32.0008,34.7976 32.0928,34.6752 C32.184,34.5528 32.2328,34.284 32.2328,33.8648 L32.2328,33.5408 L33.6688,33.5408 L33.6688,33.9056 C33.6688,34.6344 33.4952,35.1824 33.1432,35.5528 C32.7952,35.92 32.272,36.1024 31.5768,36.1024 C30.952,36.1024 30.4584,35.9088 30.0992,35.5176 C29.7408,35.1288 29.5584,34.592 29.5584,33.9064 L29.5584,30.7176 C29.5584,30.1032 29.7576,29.5992 30.152,29.212 C30.5464,28.824 31.0544,28.6304 31.6808,28.6304 C32.32,28.6304 32.8112,28.8104 33.1552,29.1696 C33.4984,29.528 33.6688,30.044 33.6688,30.7176 L33.6688,32.5288 L30.9984,32.5288 L30.9984,32.5264 Z M28.4984,35.596 C28.2816,35.8648 27.9632,35.9968 27.5488,35.9968 C27.2744,35.9968 27.032,35.9472 26.8192,35.8432 C26.6056,35.74 26.404,35.5816 26.2224,35.3624 L26.2224,35.9072 L24.8112,35.9072 L24.8112,26.2816 L26.2224,26.2816 L26.2224,29.3816 C26.412,29.1656 26.6104,28.9992 26.8208,28.888 C27.0344,28.7744 27.248,28.7192 27.4648,28.7192 C27.908,28.7192 28.2448,28.8704 28.4768,29.1712 C28.712,29.4744 28.8272,29.9176 28.8272,30.4992 L28.8272,34.44 C28.8272,34.9424 28.7176,35.3272 28.4984,35.596 L28.4984,35.596 Z M22.3664,35.9072 L22.3664,35.1264 C22.1064,35.4152 21.84,35.6352 21.5592,35.784 C21.28,35.9368 21.0104,36.0096 20.748,36.0096 C20.424,36.0096 20.184,35.9064 20.0176,35.6928 C19.8568,35.48 19.7736,35.1664 19.7736,34.7416 L19.7736,28.804 L21.1688,28.804 L21.1688,34.2512 C21.1688,34.42 21.1984,34.5408 21.2544,34.6168 C21.316,34.6928 21.4112,34.7296 21.5408,34.7296 C21.6432,34.7296 21.7744,34.68 21.9312,34.5792 C22.0888,34.4792 22.2312,34.3528 22.3648,34.1992 L22.3648,28.804 L23.76,28.804 L23.76,35.9064 L22.3664,35.9064 L22.3664,35.9072 Z M17.5328,27.68 L17.5328,35.9072 L15.9584,35.9072 L15.9584,27.68 L14.3312,27.68 L14.3312,26.2816 L19.16,26.2816 L19.16,27.68 L17.5328,27.68 L17.5328,27.68 Z M23.9952,23.1824 C23.9952,23.1816 33.6592,23.1968 34.8064,24.3424 C35.9576,25.4904 35.9704,31.1536 35.9704,31.1864 C35.9704,31.1864 35.9608,36.88 34.8064,38.0312 C33.6592,39.1752 23.9952,39.2 23.9952,39.2 C23.9952,39.2 14.332,39.1752 13.1824,38.0304 C12.032,36.8824 12.0296,31.2288 12.0296,31.1856 C12.0296,31.1528 12.0328,25.4896 13.1824,24.3416 C14.3328,23.1968 23.9952,23.1816 23.9952,23.1824 L23.9952,23.1824 Z M31.616,20.204 L30.0432,20.204 L30.0432,19.34 C29.7568,19.6576 29.4544,19.9024 29.1392,20.0672 C28.8256,20.2336 28.5224,20.3168 28.2272,20.3168 C27.8608,20.3168 27.5896,20.2 27.4056,19.9672 C27.2224,19.7344 27.1296,19.3856 27.1296,18.9184 L27.1296,12.3808 L28.6992,12.3808 L28.6992,18.3784 C28.6992,18.5632 28.7352,18.6976 28.8008,18.78 C28.8648,18.8632 28.9736,18.9048 29.12,18.9048 C29.2344,18.9048 29.3816,18.8496 29.5584,18.74 C29.7344,18.6304 29.8968,18.4904 30.0424,18.3184 L30.0424,12.3808 L31.6152,12.3808 L31.6152,20.204 L31.616,20.204 Z M23.0776,18.8704 C23.1888,18.988 23.3488,19.0456 23.5576,19.0456 C23.7704,19.0456 23.9384,18.9856 24.0648,18.8672 C24.1904,18.7456 24.2528,18.5808 24.2528,18.3728 L24.2528,14.1112 C24.2528,13.94 24.1888,13.8016 24.06,13.696 C23.932,13.5912 23.764,13.5392 23.5576,13.5392 C23.3648,13.5392 23.2096,13.5912 23.0888,13.696 C22.9704,13.8016 22.9088,13.94 22.9088,14.1112 L22.9088,18.3728 C22.9088,18.5864 22.9664,18.7512 23.0776,18.8704 L23.0776,18.8704 Z M21.9264,12.7224 C22.3488,12.3632 22.9192,12.1832 23.632,12.1832 C24.2816,12.1832 24.816,12.3728 25.2328,12.752 C25.6464,13.1304 25.8544,13.6184 25.8544,14.2144 L25.8544,18.2552 C25.8544,18.924 25.6504,19.448 25.2448,19.8296 C24.8344,20.2104 24.2752,20.4008 23.56,20.4008 C22.8736,20.4008 22.3224,20.204 21.9088,19.812 C21.4984,19.4184 21.2912,18.8896 21.2912,18.2248 L21.2912,14.1704 C21.2904,13.5632 21.5016,13.0808 21.9264,12.7224 L21.9264,12.7224 Z M17.0096,9.6 L15.2264,9.6 L17.3336,16.0024 L17.3336,20.204 L19.104,20.204 L19.104,15.804 L21.1632,9.6 L19.3632,9.6 L18.2704,13.8384 L18.1592,13.8384 L17.0096,9.6 L17.0096,9.6 Z M0,24 C0,10.7448 10.7456,0 24,0 C37.2544,0 48,10.7448 48,24 C48,37.2544 37.2544,48 24,48 C10.7456,48 0,37.2544 0,24 Z"/>
</svg>
